<svg width="40" height="50" viewBox="0 0 40 50" fill="none" xmlns="http://www.w3.org/2000/svg">
<circle cx="20.5" cy="25.5" r="15.5" fill="#1B1B1B"/>
<path d="M17.6125 36L17.1925 32.64C16.965 32.5525 16.7506 32.4475 16.5494 32.325C16.3481 32.2025 16.1513 32.0712 15.9588 31.9312L12.835 33.2437L9.94751 28.2562L12.6513 26.2087C12.6338 26.0862 12.625 25.9681 12.625 25.8544V25.1456C12.625 25.0319 12.6338 24.9137 12.6513 24.7912L9.94751 22.7437L12.835 17.7562L15.9588 19.0687C16.1513 18.9287 16.3525 18.7975 16.5625 18.675C16.7725 18.5525 16.9825 18.4475 17.1925 18.36L17.6125 15H23.3875L23.8075 18.36C24.035 18.4475 24.2494 18.5525 24.4506 18.675C24.6519 18.7975 24.8488 18.9287 25.0413 19.0687L28.165 17.7562L31.0525 22.7437L28.3488 24.7912C28.3663 24.9137 28.375 25.0319 28.375 25.1456V25.8544C28.375 25.9681 28.3575 26.0862 28.3225 26.2087L31.0263 28.2562L28.1388 33.2437L25.0413 31.9312C24.8488 32.0712 24.6475 32.2025 24.4375 32.325C24.2275 32.4475 24.0175 32.5525 23.8075 32.64L23.3875 36H17.6125ZM19.45 33.9H21.5238L21.8913 31.1175C22.4338 30.9775 22.9369 30.7719 23.4006 30.5006C23.8644 30.2294 24.2888 29.9012 24.6738 29.5162L27.2725 30.5925L28.2963 28.8075L26.0388 27.1012C26.1263 26.8562 26.1875 26.5981 26.2225 26.3269C26.2575 26.0556 26.275 25.78 26.275 25.5C26.275 25.22 26.2575 24.9444 26.2225 24.6731C26.1875 24.4019 26.1263 24.1437 26.0388 23.8987L28.2963 22.1925L27.2725 20.4075L24.6738 21.51C24.2888 21.1075 23.8644 20.7706 23.4006 20.4994C22.9369 20.2281 22.4338 20.0225 21.8913 19.8825L21.55 17.1H19.4763L19.1088 19.8825C18.5663 20.0225 18.0631 20.2281 17.5994 20.4994C17.1356 20.7706 16.7113 21.0987 16.3263 21.4837L13.7275 20.4075L12.7038 22.1925L14.9613 23.8725C14.8738 24.135 14.8125 24.3975 14.7775 24.66C14.7425 24.9225 14.725 25.2025 14.725 25.5C14.725 25.78 14.7425 26.0512 14.7775 26.3137C14.8125 26.5763 14.8738 26.8387 14.9613 27.1012L12.7038 28.8075L13.7275 30.5925L16.3263 29.49C16.7113 29.8925 17.1356 30.2294 17.5994 30.5006C18.0631 30.7719 18.5663 30.9775 19.1088 31.1175L19.45 33.9ZM20.5525 29.175C21.5675 29.175 22.4338 28.8162 23.1513 28.0987C23.8688 27.3812 24.2275 26.515 24.2275 25.5C24.2275 24.485 23.8688 23.6187 23.1513 22.9012C22.4338 22.1837 21.5675 21.825 20.5525 21.825C19.52 21.825 18.6494 22.1837 17.9406 22.9012C17.2319 23.6187 16.8775 24.485 16.8775 25.5C16.8775 26.515 17.2319 27.3812 17.9406 28.0987C18.6494 28.8162 19.52 29.175 20.5525 29.175Z" fill="#B1B6ED"/>
</svg>
