<svg width="48" height="53" viewBox="0 0 48 53" fill="none" xmlns="http://www.w3.org/2000/svg">
<g filter="url(#filter0_d_18_15)">
<circle cx="24" cy="25" r="20" fill="#1B1B1B"/>
<path d="M14.325 33.4375C15.9 32.3375 17.4625 31.4938 19.0125 30.9062C20.5625 30.3188 22.225 30.025 24 30.025C25.775 30.025 27.4438 30.3188 29.0063 30.9062C30.5688 31.4938 32.1375 32.3375 33.7125 33.4375C34.8125 32.0875 35.5938 30.725 36.0563 29.35C36.5188 27.975 36.75 26.525 36.75 25C36.75 21.375 35.5313 18.3438 33.0938 15.9062C30.6562 13.4688 27.625 12.25 24 12.25C20.375 12.25 17.3438 13.4688 14.9062 15.9062C12.4688 18.3438 11.25 21.375 11.25 25C11.25 26.525 11.4875 27.975 11.9625 29.35C12.4375 30.725 13.225 32.0875 14.325 33.4375ZM23.9929 26.125C22.5476 26.125 21.3313 25.6289 20.3438 24.6366C19.3563 23.6446 18.8625 22.4259 18.8625 20.9804C18.8625 19.5351 19.3586 18.3188 20.3509 17.3313C21.3429 16.3438 22.5616 15.85 24.0071 15.85C25.4524 15.85 26.6688 16.3461 27.6562 17.3384C28.6438 18.3304 29.1375 19.5491 29.1375 20.9946C29.1375 22.4399 28.6414 23.6563 27.6491 24.6438C26.6571 25.6313 25.4384 26.125 23.9929 26.125ZM24.0176 40C21.9559 40 20.0125 39.6063 18.1875 38.8188C16.3625 38.0313 14.7688 36.9563 13.4062 35.5938C12.0438 34.2313 10.9688 32.6404 10.1813 30.8211C9.39375 29.0021 9 27.0584 9 24.9899C9 22.9216 9.39375 20.9813 10.1813 19.1688C10.9688 17.3563 12.0438 15.7688 13.4062 14.4062C14.7688 13.0438 16.3596 11.9688 18.1789 11.1813C19.9979 10.3938 21.9416 10 24.0101 10C26.0784 10 28.0188 10.3938 29.8313 11.1813C31.6438 11.9688 33.2313 13.0438 34.5938 14.4062C35.9563 15.7688 37.0313 17.3566 37.8188 19.1699C38.6063 20.9831 39 22.9206 39 24.9824C39 27.0441 38.6063 28.9875 37.8188 30.8125C37.0313 32.6375 35.9563 34.2313 34.5938 35.5938C33.2313 36.9563 31.6434 38.0313 29.8301 38.8188C28.0169 39.6063 26.0794 40 24.0176 40ZM24 37.75C25.375 37.75 26.7188 37.55 28.0312 37.15C29.3438 36.75 30.6375 36.05 31.9125 35.05C30.6375 34.15 29.3375 33.4625 28.0125 32.9875C26.6875 32.5125 25.35 32.275 24 32.275C22.65 32.275 21.3125 32.5125 19.9875 32.9875C18.6625 33.4625 17.3625 34.15 16.0875 35.05C17.3625 36.05 18.6562 36.75 19.9688 37.15C21.2813 37.55 22.625 37.75 24 37.75ZM24 23.875C24.85 23.875 25.5438 23.6063 26.0813 23.0688C26.6188 22.5313 26.8875 21.8375 26.8875 20.9875C26.8875 20.1375 26.6188 19.4438 26.0813 18.9062C25.5438 18.3688 24.85 18.1 24 18.1C23.15 18.1 22.4563 18.3688 21.9188 18.9062C21.3813 19.4438 21.1125 20.1375 21.1125 20.9875C21.1125 21.8375 21.3813 22.5313 21.9188 23.0688C22.4563 23.6063 23.15 23.875 24 23.875Z" fill="#24CF7A"/>
</g>
<defs>
<filter id="filter0_d_18_15" x="0" y="0" width="48" height="58" filterUnits="userSpaceOnUse" color-interpolation-filters="sRGB">
<feFlood flood-opacity="0" result="BackgroundImageFix"/>
<feColorMatrix in="SourceAlpha" type="matrix" values="0 0 0 0 0 0 0 0 0 0 0 0 0 0 0 0 0 0 127 0" result="hardAlpha"/>
<feOffset dy="4"/>
<feGaussianBlur stdDeviation="2"/>
<feComposite in2="hardAlpha" operator="out"/>
<feColorMatrix type="matrix" values="0 0 0 0 0.141176 0 0 0 0 0.811765 0 0 0 0 0.478431 0 0 0 0.4 0"/>
<feBlend mode="normal" in2="BackgroundImageFix" result="effect1_dropShadow_18_15"/>
<feBlend mode="normal" in="SourceGraphic" in2="effect1_dropShadow_18_15" result="shape"/>
</filter>
</defs>
</svg>
