<svg width="16" height="20" viewBox="0 0 16 20" fill="none" xmlns="http://www.w3.org/2000/svg">
<path d="M11 9V4H13V9H11ZM6 15.9C5.41667 15.7333 4.9375 15.4083 4.5625 14.925C4.1875 14.4417 4 13.8833 4 13.25V4H6V15.9ZM6.75 20C5.01667 20 3.54167 19.3917 2.325 18.175C1.10833 16.9583 0.5 15.4833 0.5 13.75V4.5C0.5 3.25 0.9375 2.1875 1.8125 1.3125C2.6875 0.4375 3.75 0 5 0C6.25 0 7.3125 0.4375 8.1875 1.3125C9.0625 2.1875 9.5 3.25 9.5 4.5V12H7.5V4.5C7.48333 3.8 7.2375 3.20833 6.7625 2.725C6.2875 2.24167 5.7 2 5 2C4.3 2 3.70833 2.24167 3.225 2.725C2.74167 3.20833 2.5 3.8 2.5 4.5V13.75C2.48333 14.9333 2.89167 15.9375 3.725 16.7625C4.55833 17.5875 5.56667 18 6.75 18C7.16667 18 7.5625 17.9458 7.9375 17.8375C8.3125 17.7292 8.66667 17.5667 9 17.35V19.575C8.65 19.7083 8.2875 19.8125 7.9125 19.8875C7.5375 19.9625 7.15 20 6.75 20ZM11 19V16H8V14H11V11H13V14H16V16H13V19H11Z" fill="#B1B6ED"/>
</svg>
