<svg width="20" height="21" viewBox="0 0 20 21" fill="none" xmlns="http://www.w3.org/2000/svg">
<path d="M8 14.5H12C12.2833 14.5 12.5208 14.4042 12.7125 14.2125C12.9042 14.0208 13 13.7833 13 13.5V11.5H11V12.5H9V8.5H11V9.5H13V7.5C13 7.21667 12.9042 6.97917 12.7125 6.7875C12.5208 6.59583 12.2833 6.5 12 6.5H8C7.71667 6.5 7.47917 6.59583 7.2875 6.7875C7.09583 6.97917 7 7.21667 7 7.5V13.5C7 13.7833 7.09583 14.0208 7.2875 14.2125C7.47917 14.4042 7.71667 14.5 8 14.5ZM10 20.5C8.61667 20.5 7.31667 20.2375 6.1 19.7125C4.88333 19.1875 3.825 18.475 2.925 17.575C2.025 16.675 1.3125 15.6167 0.7875 14.4C0.2625 13.1833 0 11.8833 0 10.5C0 9.11667 0.2625 7.81667 0.7875 6.6C1.3125 5.38333 2.025 4.325 2.925 3.425C3.825 2.525 4.88333 1.8125 6.1 1.2875C7.31667 0.7625 8.61667 0.5 10 0.5C11.3833 0.5 12.6833 0.7625 13.9 1.2875C15.1167 1.8125 16.175 2.525 17.075 3.425C17.975 4.325 18.6875 5.38333 19.2125 6.6C19.7375 7.81667 20 9.11667 20 10.5C20 11.8833 19.7375 13.1833 19.2125 14.4C18.6875 15.6167 17.975 16.675 17.075 17.575C16.175 18.475 15.1167 19.1875 13.9 19.7125C12.6833 20.2375 11.3833 20.5 10 20.5ZM10 18.5C12.2333 18.5 14.125 17.725 15.675 16.175C17.225 14.625 18 12.7333 18 10.5C18 8.26667 17.225 6.375 15.675 4.825C14.125 3.275 12.2333 2.5 10 2.5C7.76667 2.5 5.875 3.275 4.325 4.825C2.775 6.375 2 8.26667 2 10.5C2 12.7333 2.775 14.625 4.325 16.175C5.875 17.725 7.76667 18.5 10 18.5Z" fill="#1E1E2F"/>
</svg>
